{"title":"Phantom 2013 720p BRRip 6CH AAC x264-SSDD (HQ) [BTUnhide]","uid":8565299,"size":2361849734,"categoryP":"video","categoryS":"hd___movies","magnet":"?xt=urn:btih:1b383d152b19da32bb668b50269f8e7cba2fee6c&amp;dn=Phantom+2013+720p+BRRip+6CH+AAC+x264-SSDD+%28HQ%29+%5BBTUnhide%5D&amp;tr=udp%3A%2F%2Ftracker.openbittorrent.com%3A80&amp;tr=udp%3A%2F%2Fopen.demonii.com%3A1337&amp;tr=udp%3A%2F%2Ftracker.coppersurfer.tk%3A6969&amp;tr=udp%3A%2F%2Fexodus.desync.com%3A6969","seeders":1,"leechers":0,"uploader":"R0thschild","files":2,"time":1370985679,"description":"              ***********************************************\n\n                BTUnhide - Largest Bittorrent Community\n      \n                         &lt;a href=&quot; http://btunhide.com/&quot; rel=&quot;nofollow&quot; target=&quot;_NEW&quot;&gt; http://btunhide.com/&lt;/a&gt;\n    \n              ***********************************************\nIMDB Link - http://www.imdb.com/title/tt1922685/\n\nSource - Phantom.2013.720p.BluRay.DTS.x264-PHD (Thumbs Up   Respect)\n\nNOTES - Enjoy.\n\nGeneral\nComplete name                            : Phantom 2013 720p BRRip 6CH AAC x264-SSDD (HQ).mp4\nFormat                                   : MPEG-4\nFormat profile                           : Base Media\nCodec ID                                 : isom\nFile size                                : 2.20 GiB\nDuration                                 : 1h 38mn\nOverall bit rate mode                    : Variable\nOverall bit rate                         : 3 198 Kbps\n\nVideo\nID                                       : 1\nFormat                                   : AVC\nFormat/Info                              : Advanced Video Codec\nFormat profile                           : &lt;a class=&quot;__cf_email__&quot; href=&quot;/cdn-cgi/l/email-protection&quot; data-cfemail=&quot;db93b2bcb39b97eff5ea&quot;&gt;[email&amp;#160;protected]&lt;/a&gt;&lt;script cf-hash='f9e31' type=&quot;text/javascript&quot;&gt;\n/* &lt;![CDATA[ */!function(){try{var t=&quot;currentScript&quot;in document?document.currentScript:function(){for(var t=document.getElementsByTagName(&quot;script&quot;),e=t.length;e--;)if(t[e].getAttribute(&quot;cf-hash&quot;))return t[e]}();if(t&amp;&amp;t.previousSibling){var e,r,n,i,c=t.previousSibling,a=c.getAttribute(&quot;data-cfemail&quot;);if(a){for(e=&quot;&quot;,r=parseInt(a.substr(0,2),16),n=2;a.length-n;n+=2)i=parseInt(a.substr(n,2),16)^r,e+=String.fromCharCode(i);e=document.createTextNode(e),c.parentNode.replaceChild(e,c)}}}catch(u){}}();/* ]]&gt; */&lt;/script&gt;\nFormat settings, CABAC                   : Yes\nFormat settings, ReFrames                : 4 frames\nCodec ID                                 : avc1\nCodec ID/Info                            : Advanced Video Coding\nDuration                                 : 1h 38mn\nBit rate                                 : 2 939 Kbps\nMaximum bit rate                         : 6 407 Kbps\nWidth                                    : 1 280 pixels\nHeight                                   : 544 pixels\nDisplay aspect ratio                     : 2.35:1\nFrame rate mode                          : Constant\nFrame rate                               : 23.976 fps\nColor space                              : YUV\nChroma subsampling                       : 4:2:0\nBit depth                                : 8 bits\nScan type                                : Progressive\nBits/(Pixel*Frame)                       : 0.176\nStream size                              : 2.02 GiB (92%)\nWriting library                          : x264 core 133 r2334 a3ac64b\n\nAudio\nID                                       : 2\nFormat                                   : AAC\nFormat/Info                              : Advanced Audio Codec\nFormat profile                           : LC\nCodec ID                                 : 40\nDuration                                 : 1h 38mn\nBit rate mode                            : Variable\nBit rate                                 : 256 Kbps\nMaximum bit rate                         : 276 Kbps\nChannel(s)                               : 6 channels\nChannel positions                        : Front: L C R, Side: L R, LFE\nSampling rate                            : 48.0 KHz\nCompression mode                         : Lossy\nStream size                              : 180 MiB (8%)\n\nGallery: &lt;a href=&quot;\nhttp://imgsure.com/?p=919773&quot; rel=&quot;nofollow&quot; target=&quot;_NEW&quot;&gt;\nhttp://imgsure.com/?p=919773&lt;/a&gt;","torrent":{"xt":"urn:btih:1b383d152b19da32bb668b50269f8e7cba2fee6c","amp;dn":"Phantom+2013+720p+BRRip+6CH+AAC+x264-SSDD+%28HQ%29+%5BBTUnhide%5D","amp;tr":["udp%3A%2F%2Ftracker.openbittorrent.com%3A80","udp%3A%2F%2Fopen.demonii.com%3A1337","udp%3A%2F%2Ftracker.coppersurfer.tk%3A6969","udp%3A%2F%2Fexodus.desync.com%3A6969"],"infoHash":"1b383d152b19da32bb668b50269f8e7cba2fee6c","infoHashBuffer":{"type":"Buffer","data":[27,56,61,21,43,25,218,50,187,102,139,80,38,159,142,124,186,47,238,108]},"announce":[],"urlList":[]}}